<svg width="552" height="563" viewBox="0 0 552 563" fill="none" xmlns="http://www.w3.org/2000/svg">
<path d="M54.8532 285.574C35.0655 285.891 19.2567 302.215 19.5737 322.003C19.8907 341.79 36.2142 357.599 56.0019 357.282C75.7897 356.965 91.5984 340.642 91.2814 320.854C90.9644 301.066 74.6409 285.257 54.8532 285.574Z" stroke="black" stroke-width="37.95"/>
<path d="M497.381 277.531C517.169 277.214 532.978 260.891 532.661 241.103C532.344 221.315 516.02 205.506 496.232 205.823C476.445 206.14 460.636 222.464 460.953 242.252C461.27 262.039 477.593 277.848 497.381 277.531Z" stroke="black" stroke-width="37.95"/>
<path d="M108.267 401.453C92.6666 401.703 80.2027 414.572 80.4527 430.173C80.7026 445.774 93.5722 458.238 109.173 457.988C124.774 457.738 137.238 444.869 136.988 429.268C136.738 413.667 123.868 401.203 108.267 401.453Z" stroke="black" stroke-width="37.95"/>
<path d="M443.967 161.653C459.568 161.403 472.032 148.533 471.782 132.932C471.532 117.331 458.662 104.867 443.061 105.117C427.46 105.367 414.996 118.237 415.246 133.838C415.496 149.439 428.366 161.903 443.967 161.653Z" stroke="black" stroke-width="37.95"/>
<path d="M189.446 502.61C180.003 502.761 172.458 510.551 172.61 519.995C172.761 529.438 180.551 536.983 189.994 536.831C199.438 536.68 206.982 528.89 206.831 519.447C206.679 510.003 198.889 502.459 189.446 502.61Z" stroke="black" stroke-width="37.95"/>
<path d="M362.788 60.4954C372.232 60.3441 379.776 52.5541 379.625 43.1107C379.474 33.6674 371.683 26.1229 362.24 26.2742C352.797 26.4255 345.252 34.2156 345.404 43.6589C345.555 53.1023 353.345 60.6467 362.788 60.4954Z" stroke="black" stroke-width="37.95"/>
<path d="M91.1339 136.707C115.491 136.317 135.585 155.776 135.975 180.134C136.365 204.492 116.905 224.585 92.548 224.975C68.1904 225.365 48.0972 205.906 47.707 181.548C47.3168 157.19 66.7764 137.097 91.1339 136.707Z" stroke="black" stroke-width="37.95"/>
<path d="M461.1 426.398C436.743 426.789 416.65 407.329 416.259 382.971C415.869 358.614 435.329 338.521 459.686 338.131C484.044 337.74 504.137 357.2 504.527 381.557C504.918 405.915 485.458 426.008 461.1 426.398Z" stroke="black" stroke-width="37.95"/>
<path d="M216.693 19.9244C248.533 19.4143 274.8 44.8523 275.31 76.693C275.82 108.534 250.382 134.8 218.541 135.31C186.701 135.82 160.434 110.382 159.924 78.5414C159.414 46.7008 184.852 20.4345 216.693 19.9244Z" stroke="black" stroke-width="37.95"/>
<path d="M335.542 543.181C303.701 543.691 277.435 518.253 276.925 486.412C276.414 454.572 301.852 428.306 333.693 427.795C365.534 427.285 391.8 452.723 392.31 484.564C392.82 516.405 367.382 542.671 335.542 543.181Z" stroke="black" stroke-width="37.95"/>
</svg>
